# xmcd CD database file
#
# Track frame offsets:
#	150
#	14487
#	31972
#	52220
#	68022
#	88195
#	105692
#	124477
#	137222
#	150252
#	166457
#	182490
#	198917
#	212584
#
# Disc length: 3109 seconds
#
# Revision: 0
# Processed by: cddbd v1.5.2PL0 Copyright (c) Steve Scherf et al.
# Submitted via: CDex 1.51
#
DISCID=c30c230e
DTITLE=Bingham and Thorne - Out of the Desert and Into the Blues
DYEAR=1997
DGENRE=Blues
TTITLE0=Ain't You Sorry
TTITLE1=Arrangement for Me
TTITLE2=Blues Around Midnight
TTITLE3=I Never Cried
TTITLE4=Moon Goin' Down
TTITLE5=Mineburg Joys
TTITLE6=Baby Please Don't Go
TTITLE7=I Feel so Good
TTITLE8=Dead Man's Clothes
TTITLE9=Big Road Blues
TTITLE10=Botherin' That Thing
TTITLE11=Long Tall Girl Got Stuck on Me
TTITLE12=Goin' Away
TTITLE13=Out of the Desert and Into the Blues
EXTD=YEAR: 1997
EXTT0=
EXTT1=
EXTT2=
EXTT3=
EXTT4=
EXTT5=
EXTT6=
EXTT7=
EXTT8=
EXTT9=
EXTT10=
EXTT11=
EXTT12=
EXTT13=
PLAYORDER=
